<svg xmlns="http://www.w3.org/2000/svg" width="189" height="55" viewBox="0 0 189 55" fill="none"><path d="M16.5112 37.5358H17.7771V18.1074H17.8321L31.2063 37.5358H32.7474V16.5664H31.4265V35.8296H31.3715L18.1073 16.5664H16.5112V37.5358Z" fill="white"></path><path d="M72.815 16.5664H71.439L79.2544 37.5908H80.7404L88.6108 16.5664H87.2899L80.0249 36.435H79.9699L72.815 16.5664ZM49.3688 29.7204L54.047 17.8323H54.1021L58.6152 29.7204H49.3688ZM44.8557 37.5358H46.2317L48.9285 30.8212H59.0004L61.6423 37.5358H63.0182L54.7075 16.5114H53.2765L44.8557 37.5358Z" fill="white"></path><path d="M158.839 29.7204L163.517 17.8323H163.572L168.085 29.7204H158.839ZM154.326 37.5358H155.702L158.399 30.8212H168.471L171.113 37.5358H172.489L164.178 16.5664H162.747L154.326 37.5358ZM128.678 26.8585V17.6672H136.164C136.879 17.6672 137.539 17.7222 138.2 17.8873C138.86 18.0524 139.411 18.3276 139.906 18.6578C140.401 18.9881 140.787 19.4834 141.062 20.0338C141.337 20.5842 141.502 21.2446 141.502 22.0702C141.502 22.8957 141.392 23.6663 141.062 24.2717C140.732 24.8771 140.401 25.3724 139.961 25.7577C139.466 26.143 138.915 26.4182 138.255 26.6383C137.595 26.8585 136.879 26.9135 136.108 26.9135L128.678 26.8585ZM127.413 37.5358H128.733V28.0143H136.219C137.429 28.0143 138.42 28.1794 139.081 28.5096C139.741 28.8398 140.236 29.2801 140.567 29.8305C140.897 30.3809 141.062 30.9863 141.117 31.7018C141.172 32.4173 141.227 33.0777 141.227 33.7932C141.227 34.5087 141.227 35.1692 141.282 35.8296C141.282 36.4901 141.447 37.0405 141.722 37.5358H143.153C142.988 37.3157 142.878 37.0955 142.768 36.8203C142.658 36.5451 142.603 36.2149 142.548 35.8847C142.493 35.5544 142.493 35.1692 142.493 34.7839V33.5731C142.493 32.9126 142.438 32.1971 142.383 31.5367C142.328 30.8762 142.108 30.2158 141.832 29.6654C141.557 29.115 141.117 28.6197 140.567 28.2344C140.016 27.8491 139.246 27.574 138.31 27.4639V27.4088C139.741 27.1887 140.842 26.5833 141.612 25.5926C142.383 24.6019 142.823 23.4461 142.823 22.0151C142.823 20.9694 142.658 20.1438 142.328 19.4834C141.998 18.8229 141.502 18.2726 140.897 17.8323C140.291 17.392 139.576 17.1168 138.75 16.8966C137.925 16.6765 137.099 16.6214 136.164 16.6214H127.413V37.5358ZM101.6 29.7204L106.278 17.8323H106.333L110.846 29.7204H101.6ZM97.0867 37.5358H98.4626L101.159 30.8212H111.231L113.873 37.5358H115.249L106.938 16.5114H105.507L97.0867 37.5358Z" fill="white"></path><path d="M16.5112 37.5358H17.7771V18.1074H17.8321L31.2063 37.5358H32.7474V16.5664H31.4265V35.8296H31.3715L18.1073 16.5664H16.5112V37.5358Z" stroke="white" stroke-width="0.550379" stroke-miterlimit="10"></path><path d="M72.815 16.5664H71.439L79.2544 37.5908H80.7404L88.6108 16.5664H87.2899L80.0249 36.435H79.9699L72.815 16.5664ZM49.3688 29.7204L54.047 17.8323H54.1021L58.6152 29.7204H49.3688ZM44.8557 37.5358H46.2317L48.9285 30.8212H59.0004L61.6423 37.5358H63.0182L54.7075 16.5114H53.2765L44.8557 37.5358Z" stroke="white" stroke-width="0.550379" stroke-miterlimit="10"></path><path d="M158.839 29.7204L163.517 17.8323H163.572L168.085 29.7204H158.839ZM154.326 37.5358H155.702L158.399 30.8212H168.471L171.113 37.5358H172.489L164.178 16.5664H162.747L154.326 37.5358ZM128.678 26.8585V17.6672H136.164C136.879 17.6672 137.539 17.7222 138.2 17.8873C138.86 18.0524 139.411 18.3276 139.906 18.6578C140.401 18.9881 140.787 19.4834 141.062 20.0338C141.337 20.5842 141.502 21.2446 141.502 22.0702C141.502 22.8957 141.392 23.6663 141.062 24.2717C140.732 24.8771 140.401 25.3724 139.961 25.7577C139.466 26.143 138.915 26.4182 138.255 26.6383C137.595 26.8585 136.879 26.9135 136.108 26.9135L128.678 26.8585ZM127.413 37.5358H128.733V28.0143H136.219C137.429 28.0143 138.42 28.1794 139.081 28.5096C139.741 28.8398 140.236 29.2801 140.567 29.8305C140.897 30.3809 141.062 30.9863 141.117 31.7018C141.172 32.4173 141.227 33.0777 141.227 33.7932C141.227 34.5087 141.227 35.1692 141.282 35.8296C141.282 36.4901 141.447 37.0405 141.722 37.5358H143.153C142.988 37.3157 142.878 37.0955 142.768 36.8203C142.658 36.5451 142.603 36.2149 142.548 35.8847C142.493 35.5544 142.493 35.1692 142.493 34.7839V33.5731C142.493 32.9126 142.438 32.1971 142.383 31.5367C142.328 30.8762 142.108 30.2158 141.832 29.6654C141.557 29.115 141.117 28.6197 140.567 28.2344C140.016 27.8491 139.246 27.574 138.31 27.4639V27.4088C139.741 27.1887 140.842 26.5833 141.612 25.5926C142.383 24.6019 142.823 23.4461 142.823 22.0151C142.823 20.9694 142.658 20.1438 142.328 19.4834C141.998 18.8229 141.502 18.2726 140.897 17.8323C140.291 17.392 139.576 17.1168 138.75 16.8966C137.925 16.6765 137.099 16.6214 136.164 16.6214H127.413V37.5358ZM101.6 29.7204L106.278 17.8323H106.333L110.846 29.7204H101.6ZM97.0867 37.5358H98.4626L101.159 30.8212H111.231L113.873 37.5358H115.249L106.938 16.5114H105.507L97.0867 37.5358Z" stroke="white" stroke-width="0.550379" stroke-miterlimit="10"></path></svg>